<svg xmlns="http://www.w3.org/2000/svg" xmlns:xlink="http://www.w3.org/1999/xlink" width="428" zoomAndPan="magnify" viewBox="0 0 321 323.999988" height="432" preserveAspectRatio="xMidYMid meet" version="1.0"><path fill="#000000" d="M 319.535156 184.617188 C 313.167969 171.179688 306.402344 166.085938 294.175781 163.964844 C 284.042969 162.21875 273.519531 165.046875 265.125 171.578125 L 265.125 89.695312 L 278.917969 101.585938 L 290.066406 88.664062 L 265.128906 67.160156 L 265.128906 0.359375 L 222.769531 0.359375 L 222.769531 30.632812 L 187.246094 0 L 84.429688 88.664062 L 95.578125 101.585938 L 109.367188 89.695312 L 109.367188 161.179688 C 103.523438 162.214844 97.9375 164.046875 92.617188 166.675781 C 87.292969 169.308594 82.445312 172.632812 78.074219 176.648438 C 75.472656 179.03125 56.609375 198.082031 42.753906 212.132812 L 37.976562 207.0625 C 22.644531 222.601562 0.0859375 245.402344 0.0859375 245.402344 L 73.851562 323.988281 L 112.734375 286.386719 L 107.488281 280.820312 L 118.550781 270.226562 C 119.621094 269.199219 120.777344 268.28125 122.027344 267.476562 C 123.273438 266.671875 124.585938 265.992188 125.964844 265.4375 C 127.339844 264.886719 128.757812 264.46875 130.214844 264.1875 C 131.675781 263.910156 133.144531 263.769531 134.628906 263.773438 L 231.867188 263.773438 C 234.144531 263.777344 236.398438 263.5625 238.632812 263.121094 C 240.863281 262.679688 243.035156 262.023438 245.136719 261.152344 C 247.242188 260.28125 249.238281 259.210938 251.128906 257.941406 C 253.019531 256.675781 254.769531 255.234375 256.375 253.621094 L 318.332031 191.597656 C 318.777344 191.148438 319.148438 190.640625 319.4375 190.078125 C 319.730469 189.515625 319.929688 188.921875 320.035156 188.296875 C 320.144531 187.671875 320.15625 187.046875 320.070312 186.417969 C 319.984375 185.792969 319.804688 185.191406 319.535156 184.617188 Z M 235.558594 13.160156 L 252.335938 13.160156 L 252.335938 56.128906 L 235.558594 41.664062 Z M 122.15625 78.664062 L 187.246094 22.53125 L 252.335938 78.664062 L 252.335938 183.921875 L 238.464844 197.820312 C 237.628906 193.160156 235.855469 188.886719 233.144531 185.003906 C 231 182.015625 228.441406 179.441406 225.464844 177.28125 C 222.492188 175.121094 219.25 173.480469 215.75 172.363281 L 215.75 102.429688 L 158.742188 102.429688 L 158.742188 168.515625 C 147.664062 163.289062 134.960938 160.0625 122.15625 160.066406 Z M 202.957031 115.230469 L 202.957031 170.480469 L 171.53125 170.425781 L 171.53125 115.230469 Z M 247.683594 244.929688 C 246.648438 245.972656 245.519531 246.902344 244.296875 247.71875 C 243.078125 248.539062 241.789062 249.226562 240.429688 249.789062 C 239.074219 250.351562 237.675781 250.777344 236.234375 251.0625 C 234.792969 251.34375 233.335938 251.484375 231.867188 251.484375 L 134.628906 251.484375 C 132.363281 251.476562 130.113281 251.691406 127.882812 252.117188 C 125.65625 252.546875 123.488281 253.183594 121.382812 254.03125 C 119.277344 254.875 117.273438 255.914062 115.367188 257.148438 C 113.460938 258.378906 111.691406 259.78125 110.054688 261.355469 L 99.0625 271.878906 L 51.191406 221.082031 C 65.746094 206.320312 84.058594 187.832031 86.375 185.707031 C 93.730469 178.96875 104.363281 173.976562 116.683594 172.617188 C 127.820312 171.390625 144.398438 172.941406 158.125 182.007812 L 204.160156 182.007812 C 212.039062 182.007812 219.527344 185.703125 223.722656 191.644531 C 227.660156 197.234375 228.628906 204.363281 226.585938 212.433594 L 148.691406 212.433594 C 148.308594 212.429688 147.933594 212.464844 147.558594 212.535156 C 147.183594 212.605469 146.820312 212.714844 146.46875 212.855469 C 146.117188 213 145.78125 213.175781 145.464844 213.386719 C 145.144531 213.597656 144.851562 213.835938 144.582031 214.101562 C 144.3125 214.371094 144.070312 214.664062 143.859375 214.976562 C 143.644531 215.292969 143.464844 215.628906 143.320312 215.976562 C 143.171875 216.328125 143.0625 216.691406 142.988281 217.066406 C 142.914062 217.4375 142.875 217.816406 142.875 218.195312 C 142.875 218.578125 142.914062 218.953125 142.988281 219.328125 C 143.0625 219.699219 143.171875 220.0625 143.320312 220.414062 C 143.464844 220.765625 143.644531 221.097656 143.859375 221.414062 C 144.070312 221.730469 144.3125 222.019531 144.582031 222.289062 C 144.851562 222.558594 145.144531 222.796875 145.464844 223.003906 C 145.78125 223.214844 146.117188 223.390625 146.46875 223.535156 C 146.820312 223.679688 147.183594 223.785156 147.558594 223.855469 C 147.933594 223.929688 148.308594 223.960938 148.691406 223.957031 L 230.839844 223.957031 C 231.4375 223.957031 232.015625 223.867188 232.582031 223.6875 C 233.148438 223.507812 233.675781 223.25 234.160156 222.90625 C 234.648438 222.5625 235.070312 222.15625 235.429688 221.683594 C 235.789062 221.207031 236.070312 220.691406 236.269531 220.132812 C 236.738281 218.820312 237.105469 217.523438 237.457031 216.226562 L 270.066406 183.554688 C 276.007812 177.617188 284.449219 174.769531 292.078125 176.074219 C 299.257812 177.320312 301.886719 178.488281 306.433594 186.117188 Z M 247.683594 244.929688 " fill-opacity="1" fill-rule="nonzero"/></svg>